{
 "cells": [
  {
   "cell_type": "markdown",
   "metadata": {},
   "source": [
    "# Mask R-CNN Demo\n",
    "\n",
    "A quick intro to using the pre-trained model to detect and segment objects."
   ]
  },
  {
   "cell_type": "code",
   "execution_count": 52,
   "metadata": {},
   "outputs": [],
   "source": [
    "import os\n",
    "import sys\n",
    "import random\n",
    "import math\n",
    "import numpy as np\n",
    "import skimage.io\n",
    "import matplotlib\n",
    "import matplotlib.pyplot as plt\n",
    "import random\n",
    "import itertools\n",
    "import colorsys\n",
    "from PIL import Image, ImageDraw, ImageFont\n",
    "import matplotlib.font_manager as fm\n",
    "from pytube import YouTube\n",
    "import glob\n",
    "import cv2\n",
    "# Root directory of the project\n",
    "ROOT_DIR = os.path.abspath(\"../\")\n",
    "\n",
    "# Import Mask RCNN\n",
    "sys.path.append(ROOT_DIR)  # To find local version of the library\n",
    "from mrcnn import utils\n",
    "import mrcnn.model as modellib\n",
    "from mrcnn import visualize\n",
    "# Import COCO config\n",
    "sys.path.append(os.path.join(ROOT_DIR, \"samples/coco/\"))  # To find local version\n",
    "import coco\n",
    "\n",
    "%matplotlib inline \n",
    "\n",
    "# Directory to save logs and trained model\n",
    "MODEL_DIR = os.path.join(ROOT_DIR, \"logs\")\n",
    "\n",
    "# Local path to trained weights file\n",
    "COCO_MODEL_PATH = os.path.join(ROOT_DIR, \"mask_rcnn_coco.h5\")\n",
    "# Download COCO trained weights from Releases if needed\n",
    "if not os.path.exists(COCO_MODEL_PATH):\n",
    "    utils.download_trained_weights(COCO_MODEL_PATH)\n",
    "\n",
    "# Directory of images to run detection on\n",
    "IMAGE_DIR = os.path.join(ROOT_DIR, \"images\")"
   ]
  },
  {
   "cell_type": "markdown",
   "metadata": {},
   "source": [
    "## Configurations\n",
    "\n",
    "We'll be using a model trained on the MS-COCO dataset. The configurations of this model are in the ```CocoConfig``` class in ```coco.py```.\n",
    "\n",
    "For inferencing, modify the configurations a bit to fit the task. To do so, sub-class the ```CocoConfig``` class and override the attributes you need to change."
   ]
  },
  {
   "cell_type": "code",
   "execution_count": 45,
   "metadata": {},
   "outputs": [
    {
     "name": "stdout",
     "output_type": "stream",
     "text": [
      "\n",
      "Configurations:\n",
      "BACKBONE                       resnet101\n",
      "BACKBONE_STRIDES               [4, 8, 16, 32, 64]\n",
      "BATCH_SIZE                     1\n",
      "BBOX_STD_DEV                   [0.1 0.1 0.2 0.2]\n",
      "COMPUTE_BACKBONE_SHAPE         None\n",
      "DETECTION_MAX_INSTANCES        100\n",
      "DETECTION_MIN_CONFIDENCE       0.7\n",
      "DETECTION_NMS_THRESHOLD        0.3\n",
      "FPN_CLASSIF_FC_LAYERS_SIZE     1024\n",
      "GPU_COUNT                      1\n",
      "GRADIENT_CLIP_NORM             5.0\n",
      "IMAGES_PER_GPU                 1\n",
      "IMAGE_CHANNEL_COUNT            3\n",
      "IMAGE_MAX_DIM                  1024\n",
      "IMAGE_META_SIZE                93\n",
      "IMAGE_MIN_DIM                  800\n",
      "IMAGE_MIN_SCALE                0\n",
      "IMAGE_RESIZE_MODE              square\n",
      "IMAGE_SHAPE                    [1024 1024    3]\n",
      "LEARNING_MOMENTUM              0.9\n",
      "LEARNING_RATE                  0.001\n",
      "LOSS_WEIGHTS                   {'rpn_class_loss': 1.0, 'rpn_bbox_loss': 1.0, 'mrcnn_class_loss': 1.0, 'mrcnn_bbox_loss': 1.0, 'mrcnn_mask_loss': 1.0}\n",
      "MASK_POOL_SIZE                 14\n",
      "MASK_SHAPE                     [28, 28]\n",
      "MAX_GT_INSTANCES               100\n",
      "MEAN_PIXEL                     [123.7 116.8 103.9]\n",
      "MINI_MASK_SHAPE                (56, 56)\n",
      "NAME                           coco\n",
      "NUM_CLASSES                    81\n",
      "POOL_SIZE                      7\n",
      "POST_NMS_ROIS_INFERENCE        1000\n",
      "POST_NMS_ROIS_TRAINING         2000\n",
      "PRE_NMS_LIMIT                  6000\n",
      "ROI_POSITIVE_RATIO             0.33\n",
      "RPN_ANCHOR_RATIOS              [0.5, 1, 2]\n",
      "RPN_ANCHOR_SCALES              (32, 64, 128, 256, 512)\n",
      "RPN_ANCHOR_STRIDE              1\n",
      "RPN_BBOX_STD_DEV               [0.1 0.1 0.2 0.2]\n",
      "RPN_NMS_THRESHOLD              0.7\n",
      "RPN_TRAIN_ANCHORS_PER_IMAGE    256\n",
      "STEPS_PER_EPOCH                1000\n",
      "TOP_DOWN_PYRAMID_SIZE          256\n",
      "TRAIN_BN                       False\n",
      "TRAIN_ROIS_PER_IMAGE           200\n",
      "USE_MINI_MASK                  True\n",
      "USE_RPN_ROIS                   True\n",
      "VALIDATION_STEPS               50\n",
      "WEIGHT_DECAY                   0.0001\n",
      "\n",
      "\n"
     ]
    }
   ],
   "source": [
    "class InferenceConfig(coco.CocoConfig):\n",
    "    # Set batch size to 1 since we'll be running inference on\n",
    "    # one image at a time. Batch size = GPU_COUNT * IMAGES_PER_GPU\n",
    "    GPU_COUNT = 1\n",
    "    IMAGES_PER_GPU = 1\n",
    "\n",
    "config = InferenceConfig()\n",
    "config.display()"
   ]
  },
  {
   "cell_type": "markdown",
   "metadata": {},
   "source": [
    "## Create Model and Load Trained Weights"
   ]
  },
  {
   "cell_type": "code",
   "execution_count": 46,
   "metadata": {
    "scrolled": false
   },
   "outputs": [],
   "source": [
    "# Create model object in inference mode.\n",
    "model = modellib.MaskRCNN(mode=\"inference\", model_dir=MODEL_DIR, config=config)\n",
    "\n",
    "# Load weights trained on MS-COCO\n",
    "model.load_weights(COCO_MODEL_PATH, by_name=True)"
   ]
  },
  {
   "cell_type": "markdown",
   "metadata": {},
   "source": [
    "## Class Names\n",
    "\n",
    "The model classifies objects and returns class IDs, which are integer value that identify each class. Some datasets assign integer values to their classes and some don't. For example, in the MS-COCO dataset, the 'person' class is 1 and 'teddy bear' is 88. The IDs are often sequential, but not always. The COCO dataset, for example, has classes associated with class IDs 70 and 72, but not 71.\n",
    "\n",
    "To improve consistency, and to support training on data from multiple sources at the same time, our ```Dataset``` class assigns it's own sequential integer IDs to each class. For example, if you load the COCO dataset using our ```Dataset``` class, the 'person' class would get class ID = 1 (just like COCO) and the 'teddy bear' class is 78 (different from COCO). Keep that in mind when mapping class IDs to class names.\n",
    "\n",
    "To get the list of class names, you'd load the dataset and then use the ```class_names``` property like this.\n",
    "```\n",
    "# Load COCO dataset\n",
    "dataset = coco.CocoDataset()\n",
    "dataset.load_coco(COCO_DIR, \"train\")\n",
    "dataset.prepare()\n",
    "\n",
    "# Print class names\n",
    "print(dataset.class_names)\n",
    "```\n",
    "\n",
    "We don't want to require you to download the COCO dataset just to run this demo, so we're including the list of class names below. The index of the class name in the list represent its ID (first class is 0, second is 1, third is 2, ...etc.)"
   ]
  },
  {
   "cell_type": "code",
   "execution_count": 47,
   "metadata": {},
   "outputs": [],
   "source": [
    "# COCO Class names\n",
    "# Index of the class in the list is its ID. For example, to get ID of\n",
    "# the teddy bear class, use: class_names.index('teddy bear')\n",
    "class_names = ['BG', 'person', 'bicycle', 'car', 'motorcycle', 'airplane',\n",
    "               'bus', 'train', 'truck', 'boat', 'traffic light',\n",
    "               'fire hydrant', 'stop sign', 'parking meter', 'bench', 'bird',\n",
    "               'cat', 'dog', 'horse', 'sheep', 'cow', 'elephant', 'bear',\n",
    "               'zebra', 'giraffe', 'backpack', 'umbrella', 'handbag', 'tie',\n",
    "               'suitcase', 'frisbee', 'skis', 'snowboard', 'sports ball',\n",
    "               'kite', 'baseball bat', 'baseball glove', 'skateboard',\n",
    "               'surfboard', 'tennis racket', 'bottle', 'wine glass', 'cup',\n",
    "               'fork', 'knife', 'spoon', 'bowl', 'banana', 'apple',\n",
    "               'sandwich', 'orange', 'broccoli', 'carrot', 'hot dog', 'pizza',\n",
    "               'donut', 'cake', 'chair', 'couch', 'potted plant', 'bed',\n",
    "               'dining table', 'toilet', 'tv', 'laptop', 'mouse', 'remote',\n",
    "               'keyboard', 'cell phone', 'microwave', 'oven', 'toaster',\n",
    "               'sink', 'refrigerator', 'book', 'clock', 'vase', 'scissors',\n",
    "               'teddy bear', 'hair drier', 'toothbrush']"
   ]
  },
  {
   "cell_type": "code",
   "execution_count": 48,
   "metadata": {},
   "outputs": [],
   "source": [
    "def apply_mask(image, mask, color, alpha=0.5):\n",
    "    \"\"\"Apply the given mask to the image.\n",
    "    \"\"\"\n",
    "    for c in range(3):\n",
    "        image[:, :, c] = np.where(mask == 1,\n",
    "                                  image[:, :, c] *\n",
    "                                  (1 - alpha) + alpha * color[c] * 255,\n",
    "                                  image[:, :, c])\n",
    "    return image\n"
   ]
  },
  {
   "cell_type": "code",
   "execution_count": 49,
   "metadata": {},
   "outputs": [],
   "source": [
    "def random_colors(N, bright=True):\n",
    "    \"\"\"\n",
    "    Generate random colors.\n",
    "    To get visually distinct colors, generate them in HSV space then\n",
    "    convert to RGB.\n",
    "    \"\"\"\n",
    "    brightness = 1.0 if bright else 0.7\n",
    "    hsv = [(i / N, 1, brightness) for i in range(N)]\n",
    "    colors = list(map(lambda c: colorsys.hsv_to_rgb(*c), hsv))\n",
    "    random.shuffle(colors)\n",
    "    return colors\n"
   ]
  },
  {
   "cell_type": "code",
   "execution_count": 59,
   "metadata": {},
   "outputs": [],
   "source": [
    "def save_image(image, image_name, boxes, masks, class_ids, scores, class_names, filter_classs_names=None,\n",
    "               scores_thresh=0.1, save_dir=None, mode=0):\n",
    "    \"\"\"\n",
    "        image: image array\n",
    "        image_name: image name\n",
    "        boxes: [num_instance, (y1, x1, y2, x2, class_id)] in image coordinates.\n",
    "        masks: [num_instances, height, width]\n",
    "        class_ids: [num_instances]\n",
    "        scores: confidence scores for each box\n",
    "        class_names: list of class names of the dataset\n",
    "        filter_classs_names: (optional) list of class names we want to draw\n",
    "        scores_thresh: (optional) threshold of confidence scores\n",
    "        save_dir: (optional) the path to store image\n",
    "        mode: (optional) select the result which you want\n",
    "                mode = 0 , save image with bbox,class_name,score and mask;\n",
    "                mode = 1 , save image with bbox,class_name and score;\n",
    "                mode = 2 , save image with class_name,score and mask;\n",
    "                mode = 3 , save mask with black background;\n",
    "    \"\"\"\n",
    "    mode_list = [0, 1, 2, 3]\n",
    "    assert mode in mode_list, \"mode's value should in mode_list %s\" % str(mode_list)\n",
    "\n",
    "    if save_dir is None:\n",
    "        save_dir = os.path.join(os.getcwd(), \"output\")\n",
    "        if not os.path.exists(save_dir):\n",
    "            os.makedirs(save_dir)\n",
    "\n",
    "    useful_mask_indices = []\n",
    "\n",
    "    N = boxes.shape[0]\n",
    "    if not N:\n",
    "        print(\"\\n*** No instances in image %s to draw *** \\n\" % (image_name))\n",
    "        return\n",
    "    else:\n",
    "        assert boxes.shape[0] == masks.shape[-1] == class_ids.shape[0]\n",
    "\n",
    "    for i in range(N):\n",
    "        # filter\n",
    "        class_id = class_ids[i]\n",
    "        score = scores[i] if scores is not None else None\n",
    "        if score is None or score < scores_thresh:\n",
    "            continue\n",
    "\n",
    "        label = class_names[class_id]\n",
    "        if (filter_classs_names is not None) and (label not in filter_classs_names):\n",
    "            continue\n",
    "\n",
    "        if not np.any(boxes[i]):\n",
    "            # Skip this instance. Has no bbox. Likely lost in image cropping.\n",
    "            continue\n",
    "\n",
    "        useful_mask_indices.append(i)\n",
    "\n",
    "    if len(useful_mask_indices) == 0:\n",
    "        print(\"\\n*** No instances in image %s to draw *** \\n\" % (image_name))\n",
    "        return\n",
    "\n",
    "    colors = random_colors(len(useful_mask_indices))\n",
    "\n",
    "    if mode != 3:\n",
    "        masked_image = image.astype(np.uint8).copy()\n",
    "    else:\n",
    "        masked_image = np.zeros(image.shape).astype(np.uint8)\n",
    "\n",
    "    if mode != 1:\n",
    "        for index, value in enumerate(useful_mask_indices):\n",
    "            masked_image = apply_mask(masked_image, masks[:, :, value], colors[index])\n",
    "\n",
    "    masked_image = Image.fromarray(masked_image)\n",
    "\n",
    "    if mode == 3:\n",
    "        masked_image.save(os.path.join(save_dir, '%s.png' % (image_name)))\n",
    "        return\n",
    "\n",
    "    draw = ImageDraw.Draw(masked_image)\n",
    "    colors = np.array(colors).astype(int) * 255\n",
    "\n",
    "    for index, value in enumerate(useful_mask_indices):\n",
    "        class_id = class_ids[value]\n",
    "        score = scores[value]\n",
    "        label = class_names[class_id]\n",
    "\n",
    "        y1, x1, y2, x2 = boxes[value]\n",
    "        if mode != 2:\n",
    "            color = tuple(colors[index])\n",
    "            draw.rectangle((x1, y1, x2, y2), outline=color)\n",
    "\n",
    "        # Label\n",
    "        font = ImageFont.truetype(\"/usr/share/fonts/truetype/dejavu/DejaVuSans-Bold.ttf\", 15)\n",
    "        draw.text((x1, y1), \"%s %f\" % (label, score), (0, 0, 0), font)\n",
    "        #draw.text((x1, y1), \"%s %f\" % (label, score), (255, 255, 255))\n",
    "\n",
    "    masked_image.save(os.path.join(save_dir, '%s.png' % (image_name)))"
   ]
  },
  {
   "cell_type": "markdown",
   "metadata": {},
   "source": [
    "## Run Object Detection"
   ]
  },
  {
   "cell_type": "code",
   "execution_count": 36,
   "metadata": {},
   "outputs": [
    {
     "data": {
      "text/plain": [
       "'/userhome/comp3314/c3314g15/MaskRCNN-Extension/samples/video.mp4'"
      ]
     },
     "execution_count": 36,
     "metadata": {},
     "output_type": "execute_result"
    }
   ],
   "source": [
    "YouTube('https://www.youtube.com/watch?v=_c1XNARpi0I').streams.first().download(filename='video')"
   ]
  },
  {
   "cell_type": "code",
   "execution_count": 61,
   "metadata": {},
   "outputs": [
    {
     "name": "stdout",
     "output_type": "stream",
     "text": [
      "ffmpeg version 3.4.4-0ubuntu0.18.04.1 Copyright (c) 2000-2018 the FFmpeg developers\n",
      "  built with gcc 7 (Ubuntu 7.3.0-16ubuntu3)\n",
      "  configuration: --prefix=/usr --extra-version=0ubuntu0.18.04.1 --toolchain=hardened --libdir=/usr/lib/x86_64-linux-gnu --incdir=/usr/include/x86_64-linux-gnu --enable-gpl --disable-stripping --enable-avresample --enable-avisynth --enable-gnutls --enable-ladspa --enable-libass --enable-libbluray --enable-libbs2b --enable-libcaca --enable-libcdio --enable-libflite --enable-libfontconfig --enable-libfreetype --enable-libfribidi --enable-libgme --enable-libgsm --enable-libmp3lame --enable-libmysofa --enable-libopenjpeg --enable-libopenmpt --enable-libopus --enable-libpulse --enable-librubberband --enable-librsvg --enable-libshine --enable-libsnappy --enable-libsoxr --enable-libspeex --enable-libssh --enable-libtheora --enable-libtwolame --enable-libvorbis --enable-libvpx --enable-libwavpack --enable-libwebp --enable-libx265 --enable-libxml2 --enable-libxvid --enable-libzmq --enable-libzvbi --enable-omx --enable-openal --enable-opengl --enable-sdl2 --enable-libdc1394 --enable-libdrm --enable-libiec61883 --enable-chromaprint --enable-frei0r --enable-libopencv --enable-libx264 --enable-shared\n",
      "  libavutil      55. 78.100 / 55. 78.100\n",
      "  libavcodec     57.107.100 / 57.107.100\n",
      "  libavformat    57. 83.100 / 57. 83.100\n",
      "  libavdevice    57. 10.100 / 57. 10.100\n",
      "  libavfilter     6.107.100 /  6.107.100\n",
      "  libavresample   3.  7.  0 /  3.  7.  0\n",
      "  libswscale      4.  8.100 /  4.  8.100\n",
      "  libswresample   2.  9.100 /  2.  9.100\n",
      "  libpostproc    54.  7.100 / 54.  7.100\n",
      "Input #0, mov,mp4,m4a,3gp,3g2,mj2, from 'lecture_video.mov':\n",
      "  Metadata:\n",
      "    major_brand     : qt  \n",
      "    minor_version   : 0\n",
      "    compatible_brands: qt  \n",
      "    creation_time   : 2019-04-03T05:12:02.000000Z\n",
      "    com.apple.quicktime.make: Apple\n",
      "    com.apple.quicktime.model: MacBookAir7,2\n",
      "    com.apple.quicktime.software: Mac OS X 10.14.3 (18D109)\n",
      "    com.apple.quicktime.creationdate: 2019-04-03T13:10:14+0800\n",
      "  Duration: 00:00:35.35, start: 0.000000, bitrate: 2985 kb/s\n",
      "    Stream #0:0(und): Video: h264 (Main) (avc1 / 0x31637661), yuv420p(tv, bt709), 766x570 [SAR 1:1 DAR 383:285], 2979 kb/s, 60 fps, 60 tbr, 6k tbn, 12k tbc (default)\n",
      "    Metadata:\n",
      "      creation_time   : 2019-04-03T05:12:02.000000Z\n",
      "      handler_name    : Core Media Data Handler\n",
      "      encoder         : H.264\n",
      "Stream mapping:\n",
      "  Stream #0:0 -> #0:0 (h264 (native) -> png (native))\n",
      "Press [q] to stop, [?] for help\n",
      "Output #0, image2, to 'img/output%04d.png':\n",
      "  Metadata:\n",
      "    major_brand     : qt  \n",
      "    minor_version   : 0\n",
      "    compatible_brands: qt  \n",
      "    com.apple.quicktime.creationdate: 2019-04-03T13:10:14+0800\n",
      "    com.apple.quicktime.make: Apple\n",
      "    com.apple.quicktime.model: MacBookAir7,2\n",
      "    com.apple.quicktime.software: Mac OS X 10.14.3 (18D109)\n",
      "    encoder         : Lavf57.83.100\n",
      "    Stream #0:0(und): Video: png, rgb24, 766x570 [SAR 1:1 DAR 383:285], q=2-31, 200 kb/s, 30 fps, 30 tbn, 30 tbc (default)\n",
      "    Metadata:\n",
      "      creation_time   : 2019-04-03T05:12:02.000000Z\n",
      "      handler_name    : Core Media Data Handler\n",
      "      encoder         : Lavc57.107.100 png\n",
      "frame= 1061 fps= 60 q=-0.0 Lsize=N/A time=00:00:35.36 bitrate=N/A speed=   2x    \n",
      "video:592731kB audio:0kB subtitle:0kB other streams:0kB global headers:0kB muxing overhead: unknown\n"
     ]
    }
   ],
   "source": [
    "!ffmpeg -i lecture_video.mov -vf fps=30 img/output%04d.png"
   ]
  },
  {
   "cell_type": "code",
   "execution_count": 60,
   "metadata": {},
   "outputs": [
    {
     "name": "stdout",
     "output_type": "stream",
     "text": [
      "\n",
      "*** No instances in image image0008 to draw *** \n",
      "\n",
      "\n",
      "*** No instances in image image0027 to draw *** \n",
      "\n",
      "\n",
      "*** No instances in image image0028 to draw *** \n",
      "\n",
      "\n",
      "*** No instances in image image0038 to draw *** \n",
      "\n",
      "\n",
      "*** No instances in image image0052 to draw *** \n",
      "\n",
      "\n",
      "*** No instances in image image0055 to draw *** \n",
      "\n",
      "\n",
      "*** No instances in image image0067 to draw *** \n",
      "\n",
      "\n",
      "*** No instances in image image0079 to draw *** \n",
      "\n",
      "\n",
      "*** No instances in image image0088 to draw *** \n",
      "\n",
      "\n",
      "*** No instances in image image0091 to draw *** \n",
      "\n",
      "\n",
      "*** No instances in image image0111 to draw *** \n",
      "\n",
      "\n",
      "*** No instances in image image0112 to draw *** \n",
      "\n",
      "\n",
      "*** No instances in image image0115 to draw *** \n",
      "\n",
      "\n",
      "*** No instances in image image0121 to draw *** \n",
      "\n",
      "\n",
      "*** No instances in image image0122 to draw *** \n",
      "\n",
      "\n",
      "*** No instances in image image0142 to draw *** \n",
      "\n",
      "\n",
      "*** No instances in image image0152 to draw *** \n",
      "\n",
      "\n",
      "*** No instances in image image0156 to draw *** \n",
      "\n",
      "\n",
      "*** No instances in image image0162 to draw *** \n",
      "\n",
      "\n",
      "*** No instances in image image0166 to draw *** \n",
      "\n",
      "\n",
      "*** No instances in image image0183 to draw *** \n",
      "\n",
      "\n",
      "*** No instances in image image0185 to draw *** \n",
      "\n",
      "\n",
      "*** No instances in image image0192 to draw *** \n",
      "\n",
      "\n",
      "*** No instances in image image0205 to draw *** \n",
      "\n",
      "\n",
      "*** No instances in image image0206 to draw *** \n",
      "\n",
      "\n",
      "*** No instances in image image0228 to draw *** \n",
      "\n",
      "\n",
      "*** No instances in image image0230 to draw *** \n",
      "\n",
      "\n",
      "*** No instances in image image0233 to draw *** \n",
      "\n",
      "\n",
      "*** No instances in image image0235 to draw *** \n",
      "\n",
      "\n",
      "*** No instances in image image0246 to draw *** \n",
      "\n",
      "\n",
      "*** No instances in image image0250 to draw *** \n",
      "\n",
      "\n",
      "*** No instances in image image0252 to draw *** \n",
      "\n",
      "\n",
      "*** No instances in image image0257 to draw *** \n",
      "\n",
      "\n",
      "*** No instances in image image0270 to draw *** \n",
      "\n",
      "\n",
      "*** No instances in image image0281 to draw *** \n",
      "\n",
      "\n",
      "*** No instances in image image0298 to draw *** \n",
      "\n",
      "\n",
      "*** No instances in image image0310 to draw *** \n",
      "\n",
      "\n",
      "*** No instances in image image0313 to draw *** \n",
      "\n",
      "\n",
      "*** No instances in image image0318 to draw *** \n",
      "\n",
      "\n",
      "*** No instances in image image0322 to draw *** \n",
      "\n",
      "\n",
      "*** No instances in image image0324 to draw *** \n",
      "\n",
      "\n",
      "*** No instances in image image0334 to draw *** \n",
      "\n",
      "\n",
      "*** No instances in image image0340 to draw *** \n",
      "\n",
      "\n",
      "*** No instances in image image0342 to draw *** \n",
      "\n",
      "\n",
      "*** No instances in image image0364 to draw *** \n",
      "\n",
      "\n",
      "*** No instances in image image0371 to draw *** \n",
      "\n",
      "\n",
      "*** No instances in image image0375 to draw *** \n",
      "\n",
      "\n",
      "*** No instances in image image0379 to draw *** \n",
      "\n",
      "\n",
      "*** No instances in image image0384 to draw *** \n",
      "\n",
      "\n",
      "*** No instances in image image0396 to draw *** \n",
      "\n",
      "\n",
      "*** No instances in image image0404 to draw *** \n",
      "\n",
      "\n",
      "*** No instances in image image0405 to draw *** \n",
      "\n",
      "\n",
      "*** No instances in image image0413 to draw *** \n",
      "\n",
      "\n",
      "*** No instances in image image0426 to draw *** \n",
      "\n",
      "\n",
      "*** No instances in image image0448 to draw *** \n",
      "\n",
      "\n",
      "*** No instances in image image0471 to draw *** \n",
      "\n",
      "\n",
      "*** No instances in image image0472 to draw *** \n",
      "\n",
      "\n",
      "*** No instances in image image0484 to draw *** \n",
      "\n",
      "\n",
      "*** No instances in image image0488 to draw *** \n",
      "\n",
      "\n",
      "*** No instances in image image0496 to draw *** \n",
      "\n",
      "\n",
      "*** No instances in image image0525 to draw *** \n",
      "\n",
      "\n",
      "*** No instances in image image0553 to draw *** \n",
      "\n",
      "\n",
      "*** No instances in image image0558 to draw *** \n",
      "\n",
      "\n",
      "*** No instances in image image0569 to draw *** \n",
      "\n",
      "\n",
      "*** No instances in image image0570 to draw *** \n",
      "\n",
      "\n",
      "*** No instances in image image0571 to draw *** \n",
      "\n",
      "\n",
      "*** No instances in image image0575 to draw *** \n",
      "\n",
      "\n",
      "*** No instances in image image0584 to draw *** \n",
      "\n",
      "\n",
      "*** No instances in image image0586 to draw *** \n",
      "\n",
      "\n",
      "*** No instances in image image0605 to draw *** \n",
      "\n",
      "\n",
      "*** No instances in image image0609 to draw *** \n",
      "\n",
      "\n",
      "*** No instances in image image0618 to draw *** \n",
      "\n",
      "\n",
      "*** No instances in image image0620 to draw *** \n",
      "\n",
      "\n",
      "*** No instances in image image0624 to draw *** \n",
      "\n",
      "\n",
      "*** No instances in image image0630 to draw *** \n",
      "\n",
      "\n",
      "*** No instances in image image0632 to draw *** \n",
      "\n",
      "\n",
      "*** No instances in image image0635 to draw *** \n",
      "\n",
      "\n",
      "*** No instances in image image0641 to draw *** \n",
      "\n",
      "\n",
      "*** No instances in image image0646 to draw *** \n",
      "\n",
      "\n",
      "*** No instances in image image0659 to draw *** \n",
      "\n",
      "\n",
      "*** No instances in image image0661 to draw *** \n",
      "\n",
      "\n",
      "*** No instances in image image0663 to draw *** \n",
      "\n",
      "\n",
      "*** No instances in image image0674 to draw *** \n",
      "\n",
      "\n",
      "*** No instances in image image0678 to draw *** \n",
      "\n",
      "\n",
      "*** No instances in image image0701 to draw *** \n",
      "\n",
      "\n",
      "*** No instances in image image0708 to draw *** \n",
      "\n",
      "\n",
      "*** No instances in image image0715 to draw *** \n",
      "\n",
      "\n",
      "*** No instances in image image0728 to draw *** \n",
      "\n",
      "\n",
      "*** No instances in image image0738 to draw *** \n",
      "\n",
      "\n",
      "*** No instances in image image0739 to draw *** \n",
      "\n",
      "\n",
      "*** No instances in image image0755 to draw *** \n",
      "\n",
      "\n",
      "*** No instances in image image0767 to draw *** \n",
      "\n",
      "\n",
      "*** No instances in image image0768 to draw *** \n",
      "\n",
      "\n",
      "*** No instances in image image0778 to draw *** \n",
      "\n",
      "\n",
      "*** No instances in image image0792 to draw *** \n",
      "\n",
      "\n",
      "*** No instances in image image0795 to draw *** \n",
      "\n",
      "\n",
      "*** No instances in image image0802 to draw *** \n",
      "\n",
      "\n",
      "*** No instances in image image0811 to draw *** \n",
      "\n",
      "\n",
      "*** No instances in image image0832 to draw *** \n",
      "\n",
      "\n",
      "*** No instances in image image0841 to draw *** \n",
      "\n",
      "\n",
      "*** No instances in image image0842 to draw *** \n",
      "\n",
      "\n",
      "*** No instances in image image0850 to draw *** \n",
      "\n",
      "\n",
      "*** No instances in image image0868 to draw *** \n",
      "\n",
      "\n",
      "*** No instances in image image0869 to draw *** \n",
      "\n",
      "\n",
      "*** No instances in image image0880 to draw *** \n",
      "\n",
      "\n",
      "*** No instances in image image0883 to draw *** \n",
      "\n",
      "\n",
      "*** No instances in image image0896 to draw *** \n",
      "\n",
      "\n",
      "*** No instances in image image0898 to draw *** \n",
      "\n",
      "\n",
      "*** No instances in image image0916 to draw *** \n",
      "\n",
      "\n",
      "*** No instances in image image0921 to draw *** \n",
      "\n",
      "\n",
      "*** No instances in image image0924 to draw *** \n",
      "\n",
      "\n",
      "*** No instances in image image0948 to draw *** \n",
      "\n",
      "\n",
      "*** No instances in image image0961 to draw *** \n",
      "\n",
      "\n",
      "*** No instances in image image0991 to draw *** \n",
      "\n",
      "\n",
      "*** No instances in image image1001 to draw *** \n",
      "\n",
      "\n",
      "*** No instances in image image1005 to draw *** \n",
      "\n",
      "\n",
      "*** No instances in image image1009 to draw *** \n",
      "\n",
      "\n",
      "*** No instances in image image1011 to draw *** \n",
      "\n",
      "\n",
      "*** No instances in image image1030 to draw *** \n",
      "\n",
      "\n",
      "*** No instances in image image1039 to draw *** \n",
      "\n",
      "\n",
      "*** No instances in image image1052 to draw *** \n",
      "\n",
      "\n",
      "*** No instances in image image1062 to draw *** \n",
      "\n",
      "\n",
      "*** No instances in image image1065 to draw *** \n",
      "\n",
      "\n",
      "*** No instances in image image1071 to draw *** \n",
      "\n",
      "\n",
      "*** No instances in image image1072 to draw *** \n",
      "\n",
      "\n",
      "*** No instances in image image1074 to draw *** \n",
      "\n",
      "\n",
      "*** No instances in image image1083 to draw *** \n",
      "\n",
      "\n",
      "*** No instances in image image1087 to draw *** \n",
      "\n",
      "\n",
      "*** No instances in image image1095 to draw *** \n",
      "\n",
      "\n",
      "*** No instances in image image1102 to draw *** \n",
      "\n",
      "\n",
      "*** No instances in image image1106 to draw *** \n",
      "\n",
      "\n",
      "*** No instances in image image1111 to draw *** \n",
      "\n",
      "\n",
      "*** No instances in image image1120 to draw *** \n",
      "\n",
      "\n",
      "*** No instances in image image1129 to draw *** \n",
      "\n",
      "\n",
      "*** No instances in image image1148 to draw *** \n",
      "\n",
      "\n",
      "*** No instances in image image1157 to draw *** \n",
      "\n",
      "\n",
      "*** No instances in image image1167 to draw *** \n",
      "\n",
      "\n",
      "*** No instances in image image1169 to draw *** \n",
      "\n",
      "\n",
      "*** No instances in image image1173 to draw *** \n",
      "\n",
      "\n",
      "*** No instances in image image1187 to draw *** \n",
      "\n",
      "\n",
      "*** No instances in image image1189 to draw *** \n",
      "\n",
      "\n",
      "*** No instances in image image1203 to draw *** \n",
      "\n",
      "\n",
      "*** No instances in image image1210 to draw *** \n",
      "\n",
      "\n",
      "*** No instances in image image1219 to draw *** \n",
      "\n",
      "\n",
      "*** No instances in image image1221 to draw *** \n",
      "\n",
      "\n",
      "*** No instances in image image1232 to draw *** \n",
      "\n",
      "\n",
      "*** No instances in image image1243 to draw *** \n",
      "\n",
      "\n",
      "*** No instances in image image1255 to draw *** \n",
      "\n",
      "\n",
      "*** No instances in image image1259 to draw *** \n",
      "\n",
      "\n",
      "*** No instances in image image1260 to draw *** \n",
      "\n",
      "\n",
      "*** No instances in image image1274 to draw *** \n",
      "\n",
      "\n",
      "*** No instances in image image1289 to draw *** \n",
      "\n",
      "\n",
      "*** No instances in image image1298 to draw *** \n",
      "\n",
      "\n",
      "*** No instances in image image1304 to draw *** \n",
      "\n",
      "\n",
      "*** No instances in image image1317 to draw *** \n",
      "\n",
      "\n",
      "*** No instances in image image1318 to draw *** \n",
      "\n",
      "\n",
      "*** No instances in image image1333 to draw *** \n",
      "\n",
      "\n",
      "*** No instances in image image1345 to draw *** \n",
      "\n",
      "\n",
      "*** No instances in image image1346 to draw *** \n",
      "\n",
      "\n",
      "*** No instances in image image1357 to draw *** \n",
      "\n",
      "\n",
      "*** No instances in image image1373 to draw *** \n",
      "\n"
     ]
    },
    {
     "name": "stdout",
     "output_type": "stream",
     "text": [
      "\n",
      "*** No instances in image image1378 to draw *** \n",
      "\n",
      "\n",
      "*** No instances in image image1387 to draw *** \n",
      "\n",
      "\n",
      "*** No instances in image image1388 to draw *** \n",
      "\n",
      "\n",
      "*** No instances in image image1392 to draw *** \n",
      "\n",
      "\n",
      "*** No instances in image image1410 to draw *** \n",
      "\n",
      "\n",
      "*** No instances in image image1414 to draw *** \n",
      "\n",
      "\n",
      "*** No instances in image image1434 to draw *** \n",
      "\n",
      "\n",
      "*** No instances in image image1438 to draw *** \n",
      "\n",
      "\n",
      "*** No instances in image image1462 to draw *** \n",
      "\n",
      "\n",
      "*** No instances in image image1472 to draw *** \n",
      "\n",
      "\n",
      "*** No instances in image image1473 to draw *** \n",
      "\n",
      "\n",
      "*** No instances in image image1474 to draw *** \n",
      "\n",
      "\n",
      "*** No instances in image image1502 to draw *** \n",
      "\n",
      "\n",
      "*** No instances in image image1505 to draw *** \n",
      "\n",
      "\n",
      "*** No instances in image image1507 to draw *** \n",
      "\n",
      "\n",
      "*** No instances in image image1520 to draw *** \n",
      "\n",
      "\n",
      "*** No instances in image image1530 to draw *** \n",
      "\n",
      "\n",
      "*** No instances in image image1539 to draw *** \n",
      "\n",
      "\n",
      "*** No instances in image image1548 to draw *** \n",
      "\n"
     ]
    },
    {
     "ename": "KeyboardInterrupt",
     "evalue": "",
     "output_type": "error",
     "traceback": [
      "\u001b[0;31m---------------------------------------------------------------------------\u001b[0m",
      "\u001b[0;31mKeyboardInterrupt\u001b[0m                         Traceback (most recent call last)",
      "\u001b[0;32m<ipython-input-60-e03314c65a48>\u001b[0m in \u001b[0;36m<module>\u001b[0;34m\u001b[0m\n\u001b[1;32m      2\u001b[0m \u001b[0;32mfor\u001b[0m \u001b[0mfilename\u001b[0m \u001b[0;32min\u001b[0m \u001b[0mglob\u001b[0m\u001b[0;34m.\u001b[0m\u001b[0mglob\u001b[0m\u001b[0;34m(\u001b[0m\u001b[0;34m'img/*.png'\u001b[0m\u001b[0;34m)\u001b[0m\u001b[0;34m:\u001b[0m \u001b[0;31m#assuming gif\u001b[0m\u001b[0;34m\u001b[0m\u001b[0;34m\u001b[0m\u001b[0m\n\u001b[1;32m      3\u001b[0m     \u001b[0mimage\u001b[0m \u001b[0;34m=\u001b[0m \u001b[0mskimage\u001b[0m\u001b[0;34m.\u001b[0m\u001b[0mio\u001b[0m\u001b[0;34m.\u001b[0m\u001b[0mimread\u001b[0m\u001b[0;34m(\u001b[0m\u001b[0mfilename\u001b[0m\u001b[0;34m)\u001b[0m\u001b[0;34m\u001b[0m\u001b[0;34m\u001b[0m\u001b[0m\n\u001b[0;32m----> 4\u001b[0;31m     \u001b[0mresults\u001b[0m \u001b[0;34m=\u001b[0m \u001b[0mmodel\u001b[0m\u001b[0;34m.\u001b[0m\u001b[0mdetect\u001b[0m\u001b[0;34m(\u001b[0m\u001b[0;34m[\u001b[0m\u001b[0mimage\u001b[0m\u001b[0;34m]\u001b[0m\u001b[0;34m,\u001b[0m \u001b[0mverbose\u001b[0m\u001b[0;34m=\u001b[0m\u001b[0;36m0\u001b[0m\u001b[0;34m)\u001b[0m\u001b[0;34m\u001b[0m\u001b[0;34m\u001b[0m\u001b[0m\n\u001b[0m\u001b[1;32m      5\u001b[0m     \u001b[0mr\u001b[0m \u001b[0;34m=\u001b[0m \u001b[0mresults\u001b[0m\u001b[0;34m[\u001b[0m\u001b[0;36m0\u001b[0m\u001b[0;34m]\u001b[0m\u001b[0;34m\u001b[0m\u001b[0;34m\u001b[0m\u001b[0m\n\u001b[1;32m      6\u001b[0m     \u001b[0mcount\u001b[0m \u001b[0;34m+=\u001b[0m \u001b[0;36m1\u001b[0m\u001b[0;34m\u001b[0m\u001b[0;34m\u001b[0m\u001b[0m\n",
      "\u001b[0;32m~/anaconda3/envs/py36/lib/python3.6/site-packages/mask_rcnn-2.1-py3.6.egg/mrcnn/model.py\u001b[0m in \u001b[0;36mdetect\u001b[0;34m(self, images, verbose)\u001b[0m\n\u001b[1;32m   2522\u001b[0m         \u001b[0;31m# Run object detection\u001b[0m\u001b[0;34m\u001b[0m\u001b[0;34m\u001b[0m\u001b[0;34m\u001b[0m\u001b[0m\n\u001b[1;32m   2523\u001b[0m         \u001b[0mdetections\u001b[0m\u001b[0;34m,\u001b[0m \u001b[0m_\u001b[0m\u001b[0;34m,\u001b[0m \u001b[0m_\u001b[0m\u001b[0;34m,\u001b[0m \u001b[0mmrcnn_mask\u001b[0m\u001b[0;34m,\u001b[0m \u001b[0m_\u001b[0m\u001b[0;34m,\u001b[0m \u001b[0m_\u001b[0m\u001b[0;34m,\u001b[0m \u001b[0m_\u001b[0m \u001b[0;34m=\u001b[0m\u001b[0;31m\\\u001b[0m\u001b[0;34m\u001b[0m\u001b[0;34m\u001b[0m\u001b[0m\n\u001b[0;32m-> 2524\u001b[0;31m             \u001b[0mself\u001b[0m\u001b[0;34m.\u001b[0m\u001b[0mkeras_model\u001b[0m\u001b[0;34m.\u001b[0m\u001b[0mpredict\u001b[0m\u001b[0;34m(\u001b[0m\u001b[0;34m[\u001b[0m\u001b[0mmolded_images\u001b[0m\u001b[0;34m,\u001b[0m \u001b[0mimage_metas\u001b[0m\u001b[0;34m,\u001b[0m \u001b[0manchors\u001b[0m\u001b[0;34m]\u001b[0m\u001b[0;34m,\u001b[0m \u001b[0mverbose\u001b[0m\u001b[0;34m=\u001b[0m\u001b[0;36m0\u001b[0m\u001b[0;34m)\u001b[0m\u001b[0;34m\u001b[0m\u001b[0;34m\u001b[0m\u001b[0m\n\u001b[0m\u001b[1;32m   2525\u001b[0m         \u001b[0;31m# Process detections\u001b[0m\u001b[0;34m\u001b[0m\u001b[0;34m\u001b[0m\u001b[0;34m\u001b[0m\u001b[0m\n\u001b[1;32m   2526\u001b[0m         \u001b[0mresults\u001b[0m \u001b[0;34m=\u001b[0m \u001b[0;34m[\u001b[0m\u001b[0;34m]\u001b[0m\u001b[0;34m\u001b[0m\u001b[0;34m\u001b[0m\u001b[0m\n",
      "\u001b[0;32m~/anaconda3/envs/py36/lib/python3.6/site-packages/keras/engine/training.py\u001b[0m in \u001b[0;36mpredict\u001b[0;34m(self, x, batch_size, verbose, steps)\u001b[0m\n\u001b[1;32m   1167\u001b[0m                                             \u001b[0mbatch_size\u001b[0m\u001b[0;34m=\u001b[0m\u001b[0mbatch_size\u001b[0m\u001b[0;34m,\u001b[0m\u001b[0;34m\u001b[0m\u001b[0;34m\u001b[0m\u001b[0m\n\u001b[1;32m   1168\u001b[0m                                             \u001b[0mverbose\u001b[0m\u001b[0;34m=\u001b[0m\u001b[0mverbose\u001b[0m\u001b[0;34m,\u001b[0m\u001b[0;34m\u001b[0m\u001b[0;34m\u001b[0m\u001b[0m\n\u001b[0;32m-> 1169\u001b[0;31m                                             steps=steps)\n\u001b[0m\u001b[1;32m   1170\u001b[0m \u001b[0;34m\u001b[0m\u001b[0m\n\u001b[1;32m   1171\u001b[0m     def train_on_batch(self, x, y,\n",
      "\u001b[0;32m~/anaconda3/envs/py36/lib/python3.6/site-packages/keras/engine/training_arrays.py\u001b[0m in \u001b[0;36mpredict_loop\u001b[0;34m(model, f, ins, batch_size, verbose, steps)\u001b[0m\n\u001b[1;32m    292\u001b[0m                 \u001b[0mins_batch\u001b[0m\u001b[0;34m[\u001b[0m\u001b[0mi\u001b[0m\u001b[0;34m]\u001b[0m \u001b[0;34m=\u001b[0m \u001b[0mins_batch\u001b[0m\u001b[0;34m[\u001b[0m\u001b[0mi\u001b[0m\u001b[0;34m]\u001b[0m\u001b[0;34m.\u001b[0m\u001b[0mtoarray\u001b[0m\u001b[0;34m(\u001b[0m\u001b[0;34m)\u001b[0m\u001b[0;34m\u001b[0m\u001b[0;34m\u001b[0m\u001b[0m\n\u001b[1;32m    293\u001b[0m \u001b[0;34m\u001b[0m\u001b[0m\n\u001b[0;32m--> 294\u001b[0;31m             \u001b[0mbatch_outs\u001b[0m \u001b[0;34m=\u001b[0m \u001b[0mf\u001b[0m\u001b[0;34m(\u001b[0m\u001b[0mins_batch\u001b[0m\u001b[0;34m)\u001b[0m\u001b[0;34m\u001b[0m\u001b[0;34m\u001b[0m\u001b[0m\n\u001b[0m\u001b[1;32m    295\u001b[0m             \u001b[0mbatch_outs\u001b[0m \u001b[0;34m=\u001b[0m \u001b[0mto_list\u001b[0m\u001b[0;34m(\u001b[0m\u001b[0mbatch_outs\u001b[0m\u001b[0;34m)\u001b[0m\u001b[0;34m\u001b[0m\u001b[0;34m\u001b[0m\u001b[0m\n\u001b[1;32m    296\u001b[0m             \u001b[0;32mif\u001b[0m \u001b[0mbatch_index\u001b[0m \u001b[0;34m==\u001b[0m \u001b[0;36m0\u001b[0m\u001b[0;34m:\u001b[0m\u001b[0;34m\u001b[0m\u001b[0;34m\u001b[0m\u001b[0m\n",
      "\u001b[0;32m~/anaconda3/envs/py36/lib/python3.6/site-packages/keras/backend/tensorflow_backend.py\u001b[0m in \u001b[0;36m__call__\u001b[0;34m(self, inputs)\u001b[0m\n\u001b[1;32m   2713\u001b[0m                 \u001b[0;32mreturn\u001b[0m \u001b[0mself\u001b[0m\u001b[0;34m.\u001b[0m\u001b[0m_legacy_call\u001b[0m\u001b[0;34m(\u001b[0m\u001b[0minputs\u001b[0m\u001b[0;34m)\u001b[0m\u001b[0;34m\u001b[0m\u001b[0;34m\u001b[0m\u001b[0m\n\u001b[1;32m   2714\u001b[0m \u001b[0;34m\u001b[0m\u001b[0m\n\u001b[0;32m-> 2715\u001b[0;31m             \u001b[0;32mreturn\u001b[0m \u001b[0mself\u001b[0m\u001b[0;34m.\u001b[0m\u001b[0m_call\u001b[0m\u001b[0;34m(\u001b[0m\u001b[0minputs\u001b[0m\u001b[0;34m)\u001b[0m\u001b[0;34m\u001b[0m\u001b[0;34m\u001b[0m\u001b[0m\n\u001b[0m\u001b[1;32m   2716\u001b[0m         \u001b[0;32melse\u001b[0m\u001b[0;34m:\u001b[0m\u001b[0;34m\u001b[0m\u001b[0;34m\u001b[0m\u001b[0m\n\u001b[1;32m   2717\u001b[0m             \u001b[0;32mif\u001b[0m \u001b[0mpy_any\u001b[0m\u001b[0;34m(\u001b[0m\u001b[0mis_tensor\u001b[0m\u001b[0;34m(\u001b[0m\u001b[0mx\u001b[0m\u001b[0;34m)\u001b[0m \u001b[0;32mfor\u001b[0m \u001b[0mx\u001b[0m \u001b[0;32min\u001b[0m \u001b[0minputs\u001b[0m\u001b[0;34m)\u001b[0m\u001b[0;34m:\u001b[0m\u001b[0;34m\u001b[0m\u001b[0;34m\u001b[0m\u001b[0m\n",
      "\u001b[0;32m~/anaconda3/envs/py36/lib/python3.6/site-packages/keras/backend/tensorflow_backend.py\u001b[0m in \u001b[0;36m_call\u001b[0;34m(self, inputs)\u001b[0m\n\u001b[1;32m   2673\u001b[0m             \u001b[0mfetched\u001b[0m \u001b[0;34m=\u001b[0m \u001b[0mself\u001b[0m\u001b[0;34m.\u001b[0m\u001b[0m_callable_fn\u001b[0m\u001b[0;34m(\u001b[0m\u001b[0;34m*\u001b[0m\u001b[0marray_vals\u001b[0m\u001b[0;34m,\u001b[0m \u001b[0mrun_metadata\u001b[0m\u001b[0;34m=\u001b[0m\u001b[0mself\u001b[0m\u001b[0;34m.\u001b[0m\u001b[0mrun_metadata\u001b[0m\u001b[0;34m)\u001b[0m\u001b[0;34m\u001b[0m\u001b[0;34m\u001b[0m\u001b[0m\n\u001b[1;32m   2674\u001b[0m         \u001b[0;32melse\u001b[0m\u001b[0;34m:\u001b[0m\u001b[0;34m\u001b[0m\u001b[0;34m\u001b[0m\u001b[0m\n\u001b[0;32m-> 2675\u001b[0;31m             \u001b[0mfetched\u001b[0m \u001b[0;34m=\u001b[0m \u001b[0mself\u001b[0m\u001b[0;34m.\u001b[0m\u001b[0m_callable_fn\u001b[0m\u001b[0;34m(\u001b[0m\u001b[0;34m*\u001b[0m\u001b[0marray_vals\u001b[0m\u001b[0;34m)\u001b[0m\u001b[0;34m\u001b[0m\u001b[0;34m\u001b[0m\u001b[0m\n\u001b[0m\u001b[1;32m   2676\u001b[0m         \u001b[0;32mreturn\u001b[0m \u001b[0mfetched\u001b[0m\u001b[0;34m[\u001b[0m\u001b[0;34m:\u001b[0m\u001b[0mlen\u001b[0m\u001b[0;34m(\u001b[0m\u001b[0mself\u001b[0m\u001b[0;34m.\u001b[0m\u001b[0moutputs\u001b[0m\u001b[0;34m)\u001b[0m\u001b[0;34m]\u001b[0m\u001b[0;34m\u001b[0m\u001b[0;34m\u001b[0m\u001b[0m\n\u001b[1;32m   2677\u001b[0m \u001b[0;34m\u001b[0m\u001b[0m\n",
      "\u001b[0;32m~/.local/lib/python3.6/site-packages/tensorflow/python/client/session.py\u001b[0m in \u001b[0;36m__call__\u001b[0;34m(self, *args, **kwargs)\u001b[0m\n\u001b[1;32m   1437\u001b[0m           ret = tf_session.TF_SessionRunCallable(\n\u001b[1;32m   1438\u001b[0m               \u001b[0mself\u001b[0m\u001b[0;34m.\u001b[0m\u001b[0m_session\u001b[0m\u001b[0;34m.\u001b[0m\u001b[0m_session\u001b[0m\u001b[0;34m,\u001b[0m \u001b[0mself\u001b[0m\u001b[0;34m.\u001b[0m\u001b[0m_handle\u001b[0m\u001b[0;34m,\u001b[0m \u001b[0margs\u001b[0m\u001b[0;34m,\u001b[0m \u001b[0mstatus\u001b[0m\u001b[0;34m,\u001b[0m\u001b[0;34m\u001b[0m\u001b[0;34m\u001b[0m\u001b[0m\n\u001b[0;32m-> 1439\u001b[0;31m               run_metadata_ptr)\n\u001b[0m\u001b[1;32m   1440\u001b[0m         \u001b[0;32mif\u001b[0m \u001b[0mrun_metadata\u001b[0m\u001b[0;34m:\u001b[0m\u001b[0;34m\u001b[0m\u001b[0;34m\u001b[0m\u001b[0m\n\u001b[1;32m   1441\u001b[0m           \u001b[0mproto_data\u001b[0m \u001b[0;34m=\u001b[0m \u001b[0mtf_session\u001b[0m\u001b[0;34m.\u001b[0m\u001b[0mTF_GetBuffer\u001b[0m\u001b[0;34m(\u001b[0m\u001b[0mrun_metadata_ptr\u001b[0m\u001b[0;34m)\u001b[0m\u001b[0;34m\u001b[0m\u001b[0;34m\u001b[0m\u001b[0m\n",
      "\u001b[0;31mKeyboardInterrupt\u001b[0m: "
     ]
    }
   ],
   "source": [
    "count = 0\n",
    "for filename in glob.glob('img/*.png'): #assuming gif\n",
    "    image = skimage.io.imread(filename)\n",
    "    results = model.detect([image], verbose=0)\n",
    "    r = results[0]\n",
    "    count += 1\n",
    "    image_name = 'image'+str(count).zfill(4)\n",
    "    save_image(image, image_name, r['rois'], r['masks'],r['class_ids'],r['scores'],class_names,save_dir='output',mode=0)\n",
    "    \n",
    "    \n",
    "    "
   ]
  },
  {
   "cell_type": "code",
   "execution_count": 41,
   "metadata": {},
   "outputs": [
    {
     "name": "stdout",
     "output_type": "stream",
     "text": [
      "ffmpeg version 3.4.4-0ubuntu0.18.04.1 Copyright (c) 2000-2018 the FFmpeg developers\n",
      "  built with gcc 7 (Ubuntu 7.3.0-16ubuntu3)\n",
      "  configuration: --prefix=/usr --extra-version=0ubuntu0.18.04.1 --toolchain=hardened --libdir=/usr/lib/x86_64-linux-gnu --incdir=/usr/include/x86_64-linux-gnu --enable-gpl --disable-stripping --enable-avresample --enable-avisynth --enable-gnutls --enable-ladspa --enable-libass --enable-libbluray --enable-libbs2b --enable-libcaca --enable-libcdio --enable-libflite --enable-libfontconfig --enable-libfreetype --enable-libfribidi --enable-libgme --enable-libgsm --enable-libmp3lame --enable-libmysofa --enable-libopenjpeg --enable-libopenmpt --enable-libopus --enable-libpulse --enable-librubberband --enable-librsvg --enable-libshine --enable-libsnappy --enable-libsoxr --enable-libspeex --enable-libssh --enable-libtheora --enable-libtwolame --enable-libvorbis --enable-libvpx --enable-libwavpack --enable-libwebp --enable-libx265 --enable-libxml2 --enable-libxvid --enable-libzmq --enable-libzvbi --enable-omx --enable-openal --enable-opengl --enable-sdl2 --enable-libdc1394 --enable-libdrm --enable-libiec61883 --enable-chromaprint --enable-frei0r --enable-libopencv --enable-libx264 --enable-shared\n",
      "  libavutil      55. 78.100 / 55. 78.100\n",
      "  libavcodec     57.107.100 / 57.107.100\n",
      "  libavformat    57. 83.100 / 57. 83.100\n",
      "  libavdevice    57. 10.100 / 57. 10.100\n",
      "  libavfilter     6.107.100 /  6.107.100\n",
      "  libavresample   3.  7.  0 /  3.  7.  0\n",
      "  libswscale      4.  8.100 /  4.  8.100\n",
      "  libswresample   2.  9.100 /  2.  9.100\n",
      "  libpostproc    54.  7.100 / 54.  7.100\n",
      "Input #0, image2, from 'output/*.jpg':\n",
      "  Duration: 00:54:40.00, start: 0.000000, bitrate: N/A\n",
      "    Stream #0:0: Video: mjpeg, yuvj420p(pc, bt470bg/unknown/unknown), 1280x720 [SAR 1:1 DAR 16:9], 1 fps, 1 tbr, 1 tbn, 1 tbc\n",
      "File 'video_masked.mp4' already exists. Overwrite ? [y/N] ^C\n"
     ]
    }
   ],
   "source": [
    "!ffmpeg -framerate 30 -i output/image%04d.png video_masked.mp4"
   ]
  },
  {
   "cell_type": "code",
   "execution_count": 63,
   "metadata": {},
   "outputs": [],
   "source": [
    "image_folder = 'output'\n",
    "video_name = 'masked_video1.mp4'\n",
    "\n",
    "images = [img for img in os.listdir(image_folder) if img.endswith(\".png\")]\n",
    "frame = cv2.imread(os.path.join(image_folder, images[0]))\n",
    "height, width, layers = frame.shape\n",
    "\n",
    "video = cv2.VideoWriter(video_name, 0, 1, (width,height))\n",
    "\n",
    "for image in images:\n",
    "    video.write(cv2.imread(os.path.join(image_folder, image)))\n",
    "\n",
    "cv2.destroyAllWindows()\n",
    "video.release()"
   ]
  },
  {
   "cell_type": "code",
   "execution_count": null,
   "metadata": {},
   "outputs": [],
   "source": []
  }
 ],
 "metadata": {
  "kernelspec": {
   "display_name": "Python (py36)",
   "language": "python",
   "name": "py36"
  },
  "language_info": {
   "codemirror_mode": {
    "name": "ipython",
    "version": 3
   },
   "file_extension": ".py",
   "mimetype": "text/x-python",
   "name": "python",
   "nbconvert_exporter": "python",
   "pygments_lexer": "ipython3",
   "version": "3.6.8"
  }
 },
 "nbformat": 4,
 "nbformat_minor": 2
}
